<svg width="81" height="16" viewBox="0 0 81 16" fill="none" xmlns="http://www.w3.org/2000/svg">
<path d="M0.74 8.02C0.74 6.66 1.05333 5.44 1.68 4.36C2.32 3.28 3.18 2.44 4.26 1.84C5.35333 1.22667 6.54667 0.919999 7.84 0.919999C9.32 0.919999 10.6333 1.28667 11.78 2.02C12.94 2.74 13.78 3.76667 14.3 5.1H11.56C11.2 4.36667 10.7 3.82 10.06 3.46C9.42 3.1 8.68 2.92 7.84 2.92C6.92 2.92 6.1 3.12667 5.38 3.54C4.66 3.95333 4.09333 4.54667 3.68 5.32C3.28 6.09333 3.08 6.99333 3.08 8.02C3.08 9.04667 3.28 9.94667 3.68 10.72C4.09333 11.4933 4.66 12.0933 5.38 12.52C6.1 12.9333 6.92 13.14 7.84 13.14C8.68 13.14 9.42 12.96 10.06 12.6C10.7 12.24 11.2 11.6933 11.56 10.96H14.3C13.78 12.2933 12.94 13.32 11.78 14.04C10.6333 14.76 9.32 15.12 7.84 15.12C6.53333 15.12 5.34 14.82 4.26 14.22C3.18 13.6067 2.32 12.76 1.68 11.68C1.05333 10.6 0.74 9.38 0.74 8.02ZM19.2288 1.1V9.96C19.2288 11.0133 19.5021 11.8067 20.0488 12.34C20.6088 12.8733 21.3821 13.14 22.3688 13.14C23.3688 13.14 24.1421 12.8733 24.6888 12.34C25.2488 11.8067 25.5288 11.0133 25.5288 9.96V1.1H27.8088V9.92C27.8088 11.0533 27.5621 12.0133 27.0688 12.8C26.5754 13.5867 25.9154 14.1733 25.0888 14.56C24.2621 14.9467 23.3488 15.14 22.3488 15.14C21.3488 15.14 20.4354 14.9467 19.6088 14.56C18.7954 14.1733 18.1488 13.5867 17.6688 12.8C17.1888 12.0133 16.9488 11.0533 16.9488 9.92V1.1H19.2288ZM37.9973 15L34.7973 9.44H33.0573V15H30.7773V1.1H35.5773C36.644 1.1 37.544 1.28667 38.2773 1.66C39.024 2.03333 39.5773 2.53333 39.9373 3.16C40.3107 3.78667 40.4973 4.48667 40.4973 5.26C40.4973 6.16667 40.2307 6.99333 39.6973 7.74C39.1773 8.47333 38.3707 8.97333 37.2773 9.24L40.7173 15H37.9973ZM33.0573 7.62H35.5773C36.4307 7.62 37.0707 7.40667 37.4973 6.98C37.9373 6.55333 38.1573 5.98 38.1573 5.26C38.1573 4.54 37.944 3.98 37.5173 3.58C37.0907 3.16667 36.444 2.96 35.5773 2.96H33.0573V7.62ZM47.9941 15.14C47.0607 15.14 46.2207 14.98 45.4741 14.66C44.7274 14.3267 44.1407 13.86 43.7141 13.26C43.2874 12.66 43.0741 11.96 43.0741 11.16H45.5141C45.5674 11.76 45.8007 12.2533 46.2141 12.64C46.6407 13.0267 47.2341 13.22 47.9941 13.22C48.7807 13.22 49.3941 13.0333 49.8341 12.66C50.2741 12.2733 50.4941 11.78 50.4941 11.18C50.4941 10.7133 50.3541 10.3333 50.0741 10.04C49.8074 9.74667 49.4674 9.52 49.0541 9.36C48.6541 9.2 48.0941 9.02667 47.3741 8.84C46.4674 8.6 45.7274 8.36 45.1541 8.12C44.5941 7.86667 44.1141 7.48 43.7141 6.96C43.3141 6.44 43.1141 5.74667 43.1141 4.88C43.1141 4.08 43.3141 3.38 43.7141 2.78C44.1141 2.18 44.6741 1.72 45.3941 1.4C46.1141 1.08 46.9474 0.919999 47.8941 0.919999C49.2407 0.919999 50.3407 1.26 51.1941 1.94C52.0607 2.60667 52.5407 3.52667 52.6341 4.7H50.1141C50.0741 4.19333 49.8341 3.76 49.3941 3.4C48.9541 3.04 48.3741 2.86 47.6541 2.86C47.0007 2.86 46.4674 3.02667 46.0541 3.36C45.6407 3.69333 45.4341 4.17333 45.4341 4.8C45.4341 5.22667 45.5607 5.58 45.8141 5.86C46.0807 6.12667 46.4141 6.34 46.8141 6.5C47.2141 6.66 47.7607 6.83333 48.4541 7.02C49.3741 7.27333 50.1207 7.52667 50.6941 7.78C51.2807 8.03333 51.7741 8.42667 52.1741 8.96C52.5874 9.48 52.7941 10.18 52.7941 11.06C52.7941 11.7667 52.6007 12.4333 52.2141 13.06C51.8407 13.6867 51.2874 14.1933 50.5541 14.58C49.8341 14.9533 48.9807 15.14 47.9941 15.14ZM61.8244 15.14C60.531 15.14 59.3377 14.84 58.2444 14.24C57.1644 13.6267 56.3044 12.78 55.6644 11.7C55.0377 10.6067 54.7244 9.38 54.7244 8.02C54.7244 6.66 55.0377 5.44 55.6644 4.36C56.3044 3.28 57.1644 2.44 58.2444 1.84C59.3377 1.22667 60.531 0.919999 61.8244 0.919999C63.131 0.919999 64.3244 1.22667 65.4044 1.84C66.4977 2.44 67.3577 3.28 67.9844 4.36C68.611 5.44 68.9244 6.66 68.9244 8.02C68.9244 9.38 68.611 10.6067 67.9844 11.7C67.3577 12.78 66.4977 13.6267 65.4044 14.24C64.3244 14.84 63.131 15.14 61.8244 15.14ZM61.8244 13.16C62.7444 13.16 63.5644 12.9533 64.2844 12.54C65.0044 12.1133 65.5644 11.5133 65.9644 10.74C66.3777 9.95333 66.5844 9.04667 66.5844 8.02C66.5844 6.99333 66.3777 6.09333 65.9644 5.32C65.5644 4.54667 65.0044 3.95333 64.2844 3.54C63.5644 3.12667 62.7444 2.92 61.8244 2.92C60.9044 2.92 60.0844 3.12667 59.3644 3.54C58.6444 3.95333 58.0777 4.54667 57.6644 5.32C57.2644 6.09333 57.0644 6.99333 57.0644 8.02C57.0644 9.04667 57.2644 9.95333 57.6644 10.74C58.0777 11.5133 58.6444 12.1133 59.3644 12.54C60.0844 12.9533 60.9044 13.16 61.8244 13.16ZM75.748 15.14C74.8146 15.14 73.9746 14.98 73.228 14.66C72.4813 14.3267 71.8946 13.86 71.468 13.26C71.0413 12.66 70.828 11.96 70.828 11.16H73.268C73.3213 11.76 73.5546 12.2533 73.968 12.64C74.3946 13.0267 74.988 13.22 75.748 13.22C76.5346 13.22 77.148 13.0333 77.588 12.66C78.028 12.2733 78.248 11.78 78.248 11.18C78.248 10.7133 78.108 10.3333 77.828 10.04C77.5613 9.74667 77.2213 9.52 76.808 9.36C76.408 9.2 75.848 9.02667 75.128 8.84C74.2213 8.6 73.4813 8.36 72.908 8.12C72.348 7.86667 71.868 7.48 71.468 6.96C71.068 6.44 70.868 5.74667 70.868 4.88C70.868 4.08 71.068 3.38 71.468 2.78C71.868 2.18 72.428 1.72 73.148 1.4C73.868 1.08 74.7013 0.919999 75.648 0.919999C76.9946 0.919999 78.0946 1.26 78.948 1.94C79.8146 2.60667 80.2946 3.52667 80.388 4.7H77.868C77.828 4.19333 77.588 3.76 77.148 3.4C76.708 3.04 76.128 2.86 75.408 2.86C74.7546 2.86 74.2213 3.02667 73.808 3.36C73.3946 3.69333 73.188 4.17333 73.188 4.8C73.188 5.22667 73.3146 5.58 73.568 5.86C73.8346 6.12667 74.168 6.34 74.568 6.5C74.968 6.66 75.5146 6.83333 76.208 7.02C77.128 7.27333 77.8746 7.52667 78.448 7.78C79.0346 8.03333 79.528 8.42667 79.928 8.96C80.3413 9.48 80.548 10.18 80.548 11.06C80.548 11.7667 80.3546 12.4333 79.968 13.06C79.5946 13.6867 79.0413 14.1933 78.308 14.58C77.588 14.9533 76.7346 15.14 75.748 15.14Z" fill="black"/>
</svg>
