<svg width="117" height="16" viewBox="0 0 117 16" fill="none" xmlns="http://www.w3.org/2000/svg">
<path d="M5.04 1.1C6.52 1.1 7.81333 1.38667 8.92 1.96C10.04 2.52 10.9 3.33333 11.5 4.4C12.1133 5.45333 12.42 6.68667 12.42 8.1C12.42 9.51333 12.1133 10.74 11.5 11.78C10.9 12.82 10.04 13.62 8.92 14.18C7.81333 14.7267 6.52 15 5.04 15H0.5V1.1H5.04ZM5.04 13.14C6.66667 13.14 7.91333 12.7 8.78 11.82C9.64667 10.94 10.08 9.7 10.08 8.1C10.08 6.48667 9.64667 5.22667 8.78 4.32C7.91333 3.41333 6.66667 2.96 5.04 2.96H2.78V13.14H5.04ZM16.9597 1.1V15H14.6797V1.1H16.9597ZM24.5331 15.14C23.5998 15.14 22.7598 14.98 22.0131 14.66C21.2665 14.3267 20.6798 13.86 20.2531 13.26C19.8265 12.66 19.6131 11.96 19.6131 11.16H22.0531C22.1065 11.76 22.3398 12.2533 22.7531 12.64C23.1798 13.0267 23.7731 13.22 24.5331 13.22C25.3198 13.22 25.9331 13.0333 26.3731 12.66C26.8131 12.2733 27.0331 11.78 27.0331 11.18C27.0331 10.7133 26.8931 10.3333 26.6131 10.04C26.3465 9.74667 26.0065 9.52 25.5931 9.36C25.1931 9.2 24.6331 9.02667 23.9131 8.84C23.0065 8.6 22.2665 8.36 21.6931 8.12C21.1331 7.86667 20.6531 7.48 20.2531 6.96C19.8531 6.44 19.6531 5.74667 19.6531 4.88C19.6531 4.08 19.8531 3.38 20.2531 2.78C20.6531 2.18 21.2131 1.72 21.9331 1.4C22.6531 1.08 23.4865 0.919999 24.4331 0.919999C25.7798 0.919999 26.8798 1.26 27.7331 1.94C28.5998 2.60667 29.0798 3.52667 29.1731 4.7H26.6531C26.6131 4.19333 26.3731 3.76 25.9331 3.4C25.4931 3.04 24.9131 2.86 24.1931 2.86C23.5398 2.86 23.0065 3.02667 22.5931 3.36C22.1798 3.69333 21.9731 4.17333 21.9731 4.8C21.9731 5.22667 22.0998 5.58 22.3531 5.86C22.6198 6.12667 22.9531 6.34 23.3531 6.5C23.7531 6.66 24.2998 6.83333 24.9931 7.02C25.9131 7.27333 26.6598 7.52667 27.2331 7.78C27.8198 8.03333 28.3131 8.42667 28.7131 8.96C29.1265 9.48 29.3331 10.18 29.3331 11.06C29.3331 11.7667 29.1398 12.4333 28.7531 13.06C28.3798 13.6867 27.8265 14.1933 27.0931 14.58C26.3731 14.9533 25.5198 15.14 24.5331 15.14ZM31.2634 8.02C31.2634 6.66 31.5768 5.44 32.2034 4.36C32.8434 3.28 33.7034 2.44 34.7834 1.84C35.8768 1.22667 37.0701 0.919999 38.3634 0.919999C39.8434 0.919999 41.1568 1.28667 42.3034 2.02C43.4634 2.74 44.3034 3.76667 44.8234 5.1H42.0834C41.7234 4.36667 41.2234 3.82 40.5834 3.46C39.9434 3.1 39.2034 2.92 38.3634 2.92C37.4434 2.92 36.6234 3.12667 35.9034 3.54C35.1834 3.95333 34.6168 4.54667 34.2034 5.32C33.8034 6.09333 33.6034 6.99333 33.6034 8.02C33.6034 9.04667 33.8034 9.94667 34.2034 10.72C34.6168 11.4933 35.1834 12.0933 35.9034 12.52C36.6234 12.9333 37.4434 13.14 38.3634 13.14C39.2034 13.14 39.9434 12.96 40.5834 12.6C41.2234 12.24 41.7234 11.6933 42.0834 10.96H44.8234C44.3034 12.2933 43.4634 13.32 42.3034 14.04C41.1568 14.76 39.8434 15.12 38.3634 15.12C37.0568 15.12 35.8634 14.82 34.7834 14.22C33.7034 13.6067 32.8434 12.76 32.2034 11.68C31.5768 10.6 31.2634 9.38 31.2634 8.02ZM49.7722 1.1V15H47.4922V1.1H49.7722ZM62.4856 5.24C62.4856 5.94667 62.319 6.61333 61.9856 7.24C61.6523 7.86667 61.119 8.38 60.3856 8.78C59.6523 9.16667 58.7123 9.36 57.5656 9.36H55.0456V15H52.7656V1.1H57.5656C58.6323 1.1 59.5323 1.28667 60.2656 1.66C61.0123 2.02 61.5656 2.51333 61.9256 3.14C62.299 3.76667 62.4856 4.46667 62.4856 5.24ZM57.5656 7.5C58.4323 7.5 59.079 7.30667 59.5056 6.92C59.9323 6.52 60.1456 5.96 60.1456 5.24C60.1456 3.72 59.2856 2.96 57.5656 2.96H55.0456V7.5H57.5656ZM66.9402 13.16H71.6402V15H64.6602V1.1H66.9402V13.16ZM75.8269 1.1V15H73.5469V1.1H75.8269ZM90.2403 15H87.9603L81.1003 4.62V15H78.8203V1.08H81.1003L87.9603 11.44V1.08H90.2403V15ZM101.614 12.16H95.7944L94.7944 15H92.4144L97.3944 1.08H100.034L105.014 15H102.614L101.614 12.16ZM100.974 10.3L98.7144 3.84L96.4344 10.3H100.974ZM111.76 15.14C110.826 15.14 109.986 14.98 109.24 14.66C108.493 14.3267 107.906 13.86 107.48 13.26C107.053 12.66 106.84 11.96 106.84 11.16H109.28C109.333 11.76 109.566 12.2533 109.98 12.64C110.406 13.0267 111 13.22 111.76 13.22C112.546 13.22 113.16 13.0333 113.6 12.66C114.04 12.2733 114.26 11.78 114.26 11.18C114.26 10.7133 114.12 10.3333 113.84 10.04C113.573 9.74667 113.233 9.52 112.82 9.36C112.42 9.2 111.86 9.02667 111.14 8.84C110.233 8.6 109.493 8.36 108.92 8.12C108.36 7.86667 107.88 7.48 107.48 6.96C107.08 6.44 106.88 5.74667 106.88 4.88C106.88 4.08 107.08 3.38 107.48 2.78C107.88 2.18 108.44 1.72 109.16 1.4C109.88 1.08 110.713 0.919999 111.66 0.919999C113.006 0.919999 114.106 1.26 114.96 1.94C115.826 2.60667 116.306 3.52667 116.4 4.7H113.88C113.84 4.19333 113.6 3.76 113.16 3.4C112.72 3.04 112.14 2.86 111.42 2.86C110.766 2.86 110.233 3.02667 109.82 3.36C109.406 3.69333 109.2 4.17333 109.2 4.8C109.2 5.22667 109.326 5.58 109.58 5.86C109.846 6.12667 110.18 6.34 110.58 6.5C110.98 6.66 111.526 6.83333 112.22 7.02C113.14 7.27333 113.886 7.52667 114.46 7.78C115.046 8.03333 115.54 8.42667 115.94 8.96C116.353 9.48 116.56 10.18 116.56 11.06C116.56 11.7667 116.366 12.4333 115.98 13.06C115.606 13.6867 115.053 14.1933 114.32 14.58C113.6 14.9533 112.746 15.14 111.76 15.14Z" fill="black"/>
</svg>
