<svg width="109" height="16" viewBox="0 0 109 16" fill="none" xmlns="http://www.w3.org/2000/svg">
<path d="M8.68 1.1V2.96H2.78V7.06H7.38V8.92H2.78V15H0.5V1.1H8.68ZM19.173 12.16H13.353L12.353 15H9.97297L14.953 1.08H17.593L22.573 15H20.173L19.173 12.16ZM18.533 10.3L16.273 3.84L13.993 10.3H18.533ZM36.7183 1.1L31.4983 15H28.8583L23.6183 1.1H26.0583L30.1783 12.66L34.3183 1.1H36.7183ZM44.965 15.14C43.6717 15.14 42.4783 14.84 41.385 14.24C40.305 13.6267 39.445 12.78 38.805 11.7C38.1783 10.6067 37.865 9.38 37.865 8.02C37.865 6.66 38.1783 5.44 38.805 4.36C39.445 3.28 40.305 2.44 41.385 1.84C42.4783 1.22667 43.6717 0.919999 44.965 0.919999C46.2717 0.919999 47.465 1.22667 48.545 1.84C49.6383 2.44 50.4983 3.28 51.125 4.36C51.7517 5.44 52.065 6.66 52.065 8.02C52.065 9.38 51.7517 10.6067 51.125 11.7C50.4983 12.78 49.6383 13.6267 48.545 14.24C47.465 14.84 46.2717 15.14 44.965 15.14ZM44.965 13.16C45.885 13.16 46.705 12.9533 47.425 12.54C48.145 12.1133 48.705 11.5133 49.105 10.74C49.5183 9.95333 49.725 9.04667 49.725 8.02C49.725 6.99333 49.5183 6.09333 49.105 5.32C48.705 4.54667 48.145 3.95333 47.425 3.54C46.705 3.12667 45.885 2.92 44.965 2.92C44.045 2.92 43.225 3.12667 42.505 3.54C41.785 3.95333 41.2183 4.54667 40.805 5.32C40.405 6.09333 40.205 6.99333 40.205 8.02C40.205 9.04667 40.405 9.95333 40.805 10.74C41.2183 11.5133 41.785 12.1133 42.505 12.54C43.225 12.9533 44.045 13.16 44.965 13.16ZM61.5286 15L58.3286 9.44H56.5886V15H54.3086V1.1H59.1086C60.1753 1.1 61.0753 1.28667 61.8086 1.66C62.5553 2.03333 63.1086 2.53333 63.4686 3.16C63.8419 3.78667 64.0286 4.48667 64.0286 5.26C64.0286 6.16667 63.7619 6.99333 63.2286 7.74C62.7086 8.47333 61.9019 8.97333 60.8086 9.24L64.2486 15H61.5286ZM56.5886 7.62H59.1086C59.9619 7.62 60.6019 7.40667 61.0286 6.98C61.4686 6.55333 61.6886 5.98 61.6886 5.26C61.6886 4.54 61.4753 3.98 61.0486 3.58C60.6219 3.16667 59.9753 2.96 59.1086 2.96H56.5886V7.62ZM69.2253 1.1V15H66.9453V1.1H69.2253ZM81.1988 1.1V2.96H77.4988V15H75.2188V2.96H71.4988V1.1H81.1988ZM89.8478 15.14C88.5545 15.14 87.3611 14.84 86.2678 14.24C85.1878 13.6267 84.3278 12.78 83.6878 11.7C83.0611 10.6067 82.7478 9.38 82.7478 8.02C82.7478 6.66 83.0611 5.44 83.6878 4.36C84.3278 3.28 85.1878 2.44 86.2678 1.84C87.3611 1.22667 88.5545 0.919999 89.8478 0.919999C91.1545 0.919999 92.3478 1.22667 93.4278 1.84C94.5211 2.44 95.3811 3.28 96.0078 4.36C96.6345 5.44 96.9478 6.66 96.9478 8.02C96.9478 9.38 96.6345 10.6067 96.0078 11.7C95.3811 12.78 94.5211 13.6267 93.4278 14.24C92.3478 14.84 91.1545 15.14 89.8478 15.14ZM89.8478 13.16C90.7678 13.16 91.5878 12.9533 92.3078 12.54C93.0278 12.1133 93.5878 11.5133 93.9878 10.74C94.4011 9.95333 94.6078 9.04667 94.6078 8.02C94.6078 6.99333 94.4011 6.09333 93.9878 5.32C93.5878 4.54667 93.0278 3.95333 92.3078 3.54C91.5878 3.12667 90.7678 2.92 89.8478 2.92C88.9278 2.92 88.1078 3.12667 87.3878 3.54C86.6678 3.95333 86.1011 4.54667 85.6878 5.32C85.2878 6.09333 85.0878 6.99333 85.0878 8.02C85.0878 9.04667 85.2878 9.95333 85.6878 10.74C86.1011 11.5133 86.6678 12.1133 87.3878 12.54C88.1078 12.9533 88.9278 13.16 89.8478 13.16ZM103.771 15.14C102.838 15.14 101.998 14.98 101.251 14.66C100.505 14.3267 99.9181 13.86 99.4914 13.26C99.0647 12.66 98.8514 11.96 98.8514 11.16H101.291C101.345 11.76 101.578 12.2533 101.991 12.64C102.418 13.0267 103.011 13.22 103.771 13.22C104.558 13.22 105.171 13.0333 105.611 12.66C106.051 12.2733 106.271 11.78 106.271 11.18C106.271 10.7133 106.131 10.3333 105.851 10.04C105.585 9.74667 105.245 9.52 104.831 9.36C104.431 9.2 103.871 9.02667 103.151 8.84C102.245 8.6 101.505 8.36 100.931 8.12C100.371 7.86667 99.8914 7.48 99.4914 6.96C99.0914 6.44 98.8914 5.74667 98.8914 4.88C98.8914 4.08 99.0914 3.38 99.4914 2.78C99.8914 2.18 100.451 1.72 101.171 1.4C101.891 1.08 102.725 0.919999 103.671 0.919999C105.018 0.919999 106.118 1.26 106.971 1.94C107.838 2.60667 108.318 3.52667 108.411 4.7H105.891C105.851 4.19333 105.611 3.76 105.171 3.4C104.731 3.04 104.151 2.86 103.431 2.86C102.778 2.86 102.245 3.02667 101.831 3.36C101.418 3.69333 101.211 4.17333 101.211 4.8C101.211 5.22667 101.338 5.58 101.591 5.86C101.858 6.12667 102.191 6.34 102.591 6.5C102.991 6.66 103.538 6.83333 104.231 7.02C105.151 7.27333 105.898 7.52667 106.471 7.78C107.058 8.03333 107.551 8.42667 107.951 8.96C108.365 9.48 108.571 10.18 108.571 11.06C108.571 11.7667 108.378 12.4333 107.991 13.06C107.618 13.6867 107.065 14.1933 106.331 14.58C105.611 14.9533 104.758 15.14 103.771 15.14Z" fill="black"/>
</svg>
